<svg version="1.1" id="Layer_1" xmlns="http://www.w3.org/2000/svg" xmlns:xlink="http://www.w3.org/1999/xlink" x="0px" y="0px"
	 width="100%" viewBox="0 0 1024 1024" enable-background="new 0 0 1024 1024" xml:space="preserve">
<path fill="#000000" opacity="1.000000" stroke="none" 
	d="
M764.545715,375.509338 
	C768.568481,381.110931 772.608276,385.447754 779.882446,386.685944 
	C788.029663,388.072693 794.110596,393.489380 798.711975,400.503693 
	C800.623596,403.417755 802.388977,406.861053 807.010986,407.821960 
	C806.356079,403.279907 802.681274,401.156647 801.056824,397.862549 
	C800.145142,396.013824 797.886780,394.269348 799.431519,392.015961 
	C800.872864,389.913361 803.481995,389.944885 805.824951,389.977203 
	C809.149841,390.023102 811.817749,391.791168 814.515503,393.473053 
	C816.492798,394.705750 818.480652,395.937592 820.548279,397.006378 
	C826.789856,400.232941 827.731567,399.827301 829.245667,393.501282 
	C837.925537,393.137939 844.360229,403.720154 841.805969,414.614105 
	C844.013245,415.862640 846.287354,417.195465 848.603210,418.451050 
	C860.002808,424.631561 865.117188,434.600220 865.276001,447.155945 
	C865.482361,463.472900 863.727539,479.702698 862.497192,495.955139 
	C861.580322,508.066864 861.123047,520.212585 860.320984,532.333923 
	C859.124207,550.419250 857.802856,568.496277 856.537170,586.577087 
	C855.805603,597.027954 854.781860,607.468689 854.411011,617.932495 
	C853.584473,641.256958 849.430298,663.831604 840.399170,685.433777 
	C839.658569,687.205200 838.422241,688.945251 839.012878,691.394897 
	C841.390869,691.725830 843.824951,692.048401 846.254028,692.405212 
	C867.071106,695.463135 879.089539,710.523499 877.477844,731.523071 
	C876.231995,747.756104 867.694824,758.252258 851.822754,762.645630 
	C848.240417,763.637207 845.811768,765.471497 843.547668,768.433411 
	C831.651184,783.996948 815.429688,792.655823 796.498413,796.221497 
	C784.427368,798.495117 772.141602,799.605957 760.027527,801.679138 
	C742.389160,804.697754 727.342163,813.645935 712.577393,823.156677 
	C706.135681,827.306152 699.549255,831.220947 692.397095,834.093628 
	C685.135925,837.010132 677.594421,838.045837 669.866821,837.256287 
	C663.668579,836.622986 658.892029,833.378357 655.906555,827.910156 
	C653.278625,823.096863 653.563110,818.241943 657.003723,813.863159 
	C660.824219,809.000793 666.022705,807.706848 671.792175,809.166748 
	C674.826782,809.934570 677.780701,811.261353 680.566101,812.725525 
	C686.859863,816.033875 692.375244,814.458618 698.633057,810.110413 
	C688.154053,806.582153 680.045715,799.358521 669.039490,798.965088 
	C654.116028,798.431885 642.810059,807.421997 640.516663,822.024963 
	C638.846252,832.661438 648.621033,845.408752 661.218750,848.636963 
	C679.044617,853.204651 695.481995,848.898621 711.113342,840.258484 
	C720.002930,835.344666 728.339417,829.454651 737.572510,825.145691 
	C739.768250,824.120972 742.030090,822.763550 744.874329,824.674255 
	C742.086609,829.822815 737.177124,832.845764 733.263489,836.744385 
	C710.550110,859.370667 686.561890,880.443542 659.125732,897.312683 
	C630.311951,915.028931 599.230286,926.972595 566.279724,934.287720 
	C542.534241,939.559265 518.467468,941.555908 494.339355,939.043518 
	C454.292328,934.873596 416.696655,922.629211 381.501617,902.848450 
	C352.048370,886.294678 326.261292,865.152466 302.238983,841.637268 
	C297.716248,837.210083 292.975464,833.005676 288.336578,828.697021 
	C286.905884,827.368042 285.241394,826.185059 285.091980,823.769043 
	C287.981201,822.023499 290.334900,823.758057 292.614044,824.737915 
	C299.684296,827.777527 305.951294,832.258972 312.537292,836.167175 
	C323.478394,842.659424 334.700165,848.630493 347.533234,850.171997 
	C359.837860,851.650024 371.852997,851.076355 381.882751,842.169678 
	C389.048798,835.806091 392.009338,825.714600 388.863586,816.700806 
	C385.396118,806.765320 378.776733,800.386230 367.949890,799.204590 
	C362.752350,798.637329 357.584045,798.960876 352.747314,801.109985 
	C346.264587,803.990417 339.872437,807.074707 333.060120,810.249146 
	C340.318848,814.681030 346.812317,815.780640 354.135590,811.451050 
	C360.053101,807.952515 366.779846,806.420227 372.670319,811.930054 
	C380.111969,818.890808 377.915802,829.741821 368.268951,834.574402 
	C357.945679,839.745911 347.623962,838.745300 337.432037,834.276733 
	C327.925110,830.108459 319.505188,824.063171 310.842255,818.442261 
	C293.166321,806.973511 273.908569,800.574768 252.764847,799.181702 
	C234.077866,797.950623 216.268417,793.494385 201.483170,780.863953 
	C197.239746,777.238831 193.851608,772.976440 190.917267,768.300659 
	C189.554459,766.129028 188.039703,764.075317 185.380966,763.576782 
	C166.246964,759.988586 153.618378,739.223816 161.997345,716.014099 
	C163.394424,712.144104 165.457672,708.514587 167.417343,704.338745 
	C160.134705,700.048889 154.617447,694.126099 150.864105,686.724792 
	C144.478058,674.132019 145.468811,661.150635 150.026398,648.414917 
	C155.183945,634.002747 162.455002,620.426819 167.107330,605.772583 
	C172.749985,587.999023 178.213196,570.157715 180.329132,551.595215 
	C182.003082,536.910156 181.005722,522.372559 174.659363,508.550201 
	C164.286987,485.959259 175.096878,458.373444 199.980789,450.037415 
	C200.567474,449.840912 201.108398,449.507812 201.579422,448.357086 
	C192.021927,448.357086 182.464203,448.400238 172.907028,448.344574 
	C163.853973,448.291840 162.393219,446.544769 164.684662,437.912872 
	C169.225128,420.808990 176.541733,405.039337 187.940903,391.354736 
	C190.870377,387.837891 192.868408,384.047302 193.977448,379.525146 
	C199.728622,356.074829 215.138214,340.021027 234.646408,327.204071 
	C234.785660,327.112579 234.944977,327.044525 235.066544,326.934265 
	C244.048309,318.787628 252.954208,317.469543 261.993927,326.956238 
	C264.343994,329.422516 267.074677,328.947418 269.541473,326.712463 
	C270.528076,325.818634 271.579254,324.992096 272.635498,324.179718 
	C281.188080,317.601624 281.911346,317.484436 291.171509,322.944427 
	C294.115082,324.680054 297.189240,324.903656 300.336792,324.549255 
	C314.137543,322.995209 327.973206,323.800690 341.794128,323.816132 
	C369.611115,323.847198 397.433044,323.716339 425.241638,324.245972 
	C433.461304,324.402527 437.529541,320.283630 441.215271,313.731812 
	C440.053406,313.414062 439.289886,313.011444 438.535889,313.028473 
	C429.047791,313.243103 419.451111,311.922882 410.146210,312.502289 
	C391.969971,313.634216 373.850952,312.610291 355.715698,313.034119 
	C340.258087,313.395355 324.767487,313.658417 309.325623,313.069458 
	C286.517212,312.199493 263.709869,314.121887 240.920959,312.626495 
	C238.797516,312.487122 236.529099,312.779419 234.914825,310.845886 
	C233.617630,309.292114 233.447052,307.491943 233.908173,305.656158 
	C234.532516,303.170502 236.605377,302.211212 238.817001,302.080200 
	C243.635010,301.794769 248.471252,301.733063 253.300186,301.729095 
	C318.461456,301.675446 383.623810,301.459503 448.782715,301.836365 
	C457.534882,301.886932 463.555786,298.229126 469.838501,293.035248 
	C468.214752,291.135437 466.028198,291.316803 463.977478,291.357880 
	C454.995728,291.537720 445.992004,291.816345 437.037140,291.909302 
	C425.127258,292.032898 413.097504,292.470978 401.212769,290.699524 
	C395.554077,289.856079 389.913300,291.254639 384.266327,290.654480 
	C381.322723,290.341614 377.622131,290.725891 377.651184,286.410797 
	C377.680542,282.051331 381.279755,281.767670 384.541138,281.761749 
	C415.704895,281.705444 446.870911,281.495361 478.030975,281.826874 
	C485.317078,281.904388 487.706726,276.991913 491.496155,272.907318 
	C489.380371,270.742767 487.256775,271.432556 485.357086,271.442657 
	C464.864319,271.551331 444.363983,272.178528 423.881165,271.808624 
	C383.054871,271.071442 342.231323,271.577087 301.407288,271.496185 
	C292.254944,271.478088 283.108337,272.364288 273.945160,271.444336 
	C270.866180,271.135193 268.742432,270.107056 268.774536,266.708191 
	C268.805511,263.430389 270.849884,261.984558 273.884155,261.725311 
	C275.208649,261.612183 276.548828,261.672180 277.881866,261.671204 
	C316.367432,261.643219 354.855652,261.876373 393.337524,261.484985 
	C413.305786,261.281921 433.268066,261.938019 453.245911,261.226349 
	C468.032532,260.699646 482.866577,261.296478 497.673492,261.645935 
	C503.652374,261.787079 509.304352,261.286743 514.351135,257.746124 
	C517.077881,255.833115 519.937561,255.642227 522.744324,257.518951 
	C528.146851,261.131439 534.259033,261.643738 540.468079,261.622925 
	C560.794678,261.554840 581.123230,261.324890 601.446228,261.238586 
	C652.079712,261.023529 702.716064,261.479706 753.351196,261.694153 
	C754.831543,261.700409 756.376892,261.802643 757.775696,262.235718 
	C760.298523,263.016754 761.595520,264.850403 761.244812,267.569977 
	C760.908569,270.176819 759.130615,271.197083 756.720459,271.326904 
	C755.057861,271.416473 753.388916,271.412292 751.722839,271.412750 
	C719.392151,271.421844 687.061462,271.432129 654.730774,271.428345 
	C621.264587,271.424408 587.798462,271.394470 554.332275,271.425354 
	C552.600647,271.426941 550.661743,270.757477 548.653931,272.762604 
	C553.314148,276.754791 556.333191,281.952118 564.053772,281.852936 
	C593.044739,281.480347 622.044739,281.803925 651.041260,281.887360 
	C652.700684,281.892151 654.381897,281.947510 656.012634,282.220581 
	C657.822021,282.523621 658.981140,283.679657 659.156616,285.596466 
	C659.326355,287.451172 658.577209,289.011505 656.910156,289.688263 
	C655.247253,290.363312 653.361511,291.000397 651.620422,290.893036 
	C634.121399,289.814026 616.716553,292.269623 599.236328,292.207001 
	C592.222290,292.181824 585.295715,291.092529 578.304382,291.358795 
	C576.580566,291.424438 574.609619,290.805084 573.103943,292.932465 
	C578.893799,297.463226 583.754028,301.985687 592.482666,301.924225 
	C657.639832,301.465271 722.802124,301.719513 787.962769,301.771790 
	C789.449219,301.772980 790.984314,301.837952 792.410889,302.205963 
	C794.927612,302.855225 796.423767,304.469299 796.278809,307.265533 
	C796.141052,309.922577 794.885071,311.803894 792.230042,312.211243 
	C789.114136,312.689331 785.944458,313.051025 782.797302,313.057495 
	C736.334534,313.153290 689.865845,313.593475 643.412598,312.946167 
	C631.276001,312.777039 619.166016,313.750946 607.047241,313.071320 
	C605.927612,313.008514 604.792786,313.218384 602.132874,313.414764 
	C610.275024,318.812531 615.279358,325.508179 625.944214,324.559448 
	C641.981934,323.132812 658.238831,324.185760 674.402405,324.153320 
	C687.886292,324.126282 701.370056,324.052338 714.853882,324.003693 
	C719.181946,323.988098 723.492554,323.917450 727.823425,324.469818 
	C732.539307,325.071350 737.102173,323.993317 741.424011,322.015442 
	C756.451843,315.137848 770.905701,316.881165 784.852356,325.042694 
	C791.013916,328.648407 796.804810,332.759613 803.634949,335.320923 
	C809.553711,337.540466 806.635132,343.400726 806.885498,347.708160 
	C807.106873,351.516815 803.905029,351.970551 800.929932,352.130127 
	C794.804932,352.458710 788.616028,351.976746 782.251221,353.511688 
	C782.970215,358.811859 779.665710,360.099060 775.380432,360.284607 
	C773.823059,360.352020 772.082520,360.549042 771.351929,361.885376 
	C768.986389,366.212311 764.994019,368.434296 760.798767,370.108185 
	C761.007080,372.918579 763.351929,373.573639 764.545715,375.509338 
M659.190674,740.225220 
	C651.662598,728.996216 646.899902,716.686768 644.568054,703.379150 
	C644.195679,701.253784 644.627991,697.949524 641.746948,697.602539 
	C637.961365,697.146606 633.971130,696.673706 630.110901,697.965088 
	C633.576294,708.579529 631.168274,712.613342 620.502075,715.586365 
	C614.945068,717.135132 609.601135,715.505737 604.157837,715.380981 
	C578.342834,714.789307 552.532410,713.786011 526.702637,714.264343 
	C509.883270,714.575806 493.062866,715.276672 476.247559,715.156433 
	C468.856232,715.103516 460.547302,714.680176 455.524536,708.506226 
	C451.492493,703.549988 446.861145,702.433105 441.560730,702.879761 
	C422.741577,704.465698 404.420044,708.520996 386.714569,715.168030 
	C384.987640,715.816406 382.873718,716.141418 381.919128,718.262634 
	C384.539917,720.516541 387.479645,721.687256 390.435669,722.788330 
	C398.890045,725.937378 407.573975,727.903931 416.579773,728.969177 
	C435.915222,731.256287 454.806427,731.085693 472.525208,721.594788 
	C474.598663,720.484192 476.718903,720.285217 478.768860,721.243774 
	C484.651886,723.994629 490.492035,726.840942 496.292358,729.762207 
	C497.732117,730.487305 499.484833,731.376770 499.200226,733.407959 
	C498.954437,735.162231 497.155457,735.484314 495.819061,736.027222 
	C469.703552,746.635559 443.059326,754.687256 414.358093,752.301086 
	C401.280396,751.213867 388.614746,748.494629 377.463196,741.133850 
	C354.252167,725.812988 334.756073,706.629944 318.900360,683.800293 
	C311.906952,673.730957 307.612976,662.629639 308.136993,650.143982 
	C308.870636,632.662903 312.951202,615.618591 315.221008,598.333740 
	C317.360748,582.039856 320.264923,565.847900 322.609985,549.579041 
	C325.594391,528.874512 328.296692,508.129486 331.235352,487.418182 
	C332.755096,476.707458 334.609894,466.034271 333.770233,455.150177 
	C332.833374,443.005737 325.485565,434.574341 313.950378,431.897766 
	C310.896027,431.189056 309.335144,431.924133 308.187683,434.817322 
	C298.612885,458.959137 288.948669,483.065491 279.304138,507.179626 
	C272.502899,524.184631 265.883240,541.267029 258.096802,557.857361 
	C257.280914,559.595764 256.386505,561.989746 254.083649,561.831543 
	C251.408951,561.647888 251.797821,558.921448 251.459488,557.089355 
	C247.989441,538.299316 245.203140,519.380554 240.688293,500.788269 
	C238.486542,491.721375 236.569366,482.563232 231.104691,474.705811 
	C225.868774,467.177368 218.656586,462.837372 209.494858,463.738007 
	C198.713150,464.797943 191.578537,470.909607 188.430496,481.575134 
	C186.407394,488.429413 187.579102,494.878632 190.533127,500.963287 
	C200.290512,521.061340 200.643906,541.997620 196.547699,563.362915 
	C191.597809,589.180969 182.335846,613.575256 171.941406,637.606873 
	C168.453049,645.671814 164.165955,653.435974 162.724075,662.326599 
	C161.138168,672.105225 167.333908,683.146545 176.068237,685.400085 
	C184.979645,687.699158 194.734375,681.365784 197.456314,671.083435 
	C200.093338,661.121948 202.180878,651.016296 204.707596,641.023987 
	C209.880768,620.565796 215.170639,600.137085 220.468353,579.710632 
	C220.884720,578.105164 220.791855,575.926636 223.697906,575.608826 
	C225.933807,580.841003 226.236298,586.525452 227.301193,591.994812 
	C230.760849,609.763855 233.751083,627.630188 238.376587,645.152100 
	C239.272049,648.544250 239.460922,652.466248 244.354904,655.005310 
	C258.584106,621.999451 272.937714,589.316711 288.912872,556.742676 
	C291.241333,559.397888 290.416260,561.274353 290.137512,562.947327 
	C285.253998,592.254395 278.404816,621.195374 273.993622,650.597961 
	C270.973480,670.728455 275.755280,688.504517 289.967926,702.995728 
	C318.149139,731.729187 352.007141,750.267883 391.752625,757.636902 
	C410.210571,761.059143 428.695892,761.669373 447.342072,758.888489 
	C462.762054,756.588806 477.477386,752.091736 491.851654,746.257202 
	C497.627106,743.913025 503.407593,742.613098 509.832977,743.416626 
	C524.182068,745.210754 538.582947,746.685242 552.999634,747.822449 
	C576.255920,749.656860 599.540833,750.733643 622.705322,746.639648 
	C628.597168,745.598328 634.439026,744.272095 640.299988,743.058167 
	C644.264160,742.237061 647.935852,742.890137 649.681091,746.782654 
	C651.617737,751.102051 648.402771,753.530884 645.241272,755.645874 
	C642.423645,757.530701 639.213989,758.467773 635.966187,759.223145 
	C625.080139,761.755005 614.006653,762.687927 602.879822,763.610474 
	C580.348572,765.478638 557.965332,763.682617 535.559570,761.947937 
	C528.489685,761.400635 521.981079,759.723999 515.498779,765.931335 
	C509.486176,771.689087 500.933350,774.452148 492.934875,777.423157 
	C469.326569,786.192505 444.912079,789.071777 419.833801,788.437866 
	C395.435272,787.821106 371.934540,783.242249 349.182312,774.574951 
	C337.465057,770.111328 326.598694,763.943176 315.729156,757.773743 
	C310.823395,754.989319 308.994110,756.076843 308.939819,761.613770 
	C308.902222,765.445007 309.005188,769.279175 309.118835,773.109863 
	C309.217133,776.422485 307.579041,778.135986 304.370911,778.203430 
	C302.395660,778.244934 300.348022,778.172485 298.444000,777.701721 
	C289.544647,775.501038 280.890045,772.505066 272.239929,769.482605 
	C268.821716,768.288208 267.728455,766.161560 267.745361,762.701111 
	C267.819336,747.539185 267.519196,732.373352 267.759064,717.215271 
	C267.888763,709.022339 265.436310,701.495483 263.292328,693.811218 
	C262.146301,689.703735 258.832092,689.565125 255.790741,689.585205 
	C252.489563,689.606934 253.170654,692.903809 252.571487,694.958679 
	C252.208694,696.202820 252.393890,697.604309 252.315598,698.934143 
	C251.001953,721.243896 252.050018,743.558899 252.132736,765.872131 
	C252.144150,768.949585 252.666412,771.725647 255.172165,774.147583 
	C247.807602,773.858093 240.910583,772.459229 234.150742,770.411682 
	C224.323273,767.434875 220.250305,761.357178 222.007828,751.170471 
	C223.181305,744.368835 222.388412,737.898254 220.665741,731.438904 
	C217.263535,718.681946 201.828156,710.217651 189.905106,714.539368 
	C182.414520,717.254517 178.336914,722.949707 177.490768,730.640625 
	C176.723953,737.610352 179.283035,743.419373 185.509949,747.180664 
	C191.913940,751.048828 197.096466,749.142456 200.015076,742.361694 
	C201.583481,738.717834 205.126266,736.677002 208.552353,735.155884 
	C211.412964,733.885925 215.404648,737.460144 215.353058,740.523376 
	C215.256058,746.280823 215.156113,752.043762 215.300888,757.798340 
	C215.495239,765.522156 219.364182,771.094727 226.228928,774.349548 
	C231.183289,776.698547 236.392746,778.546143 241.807098,779.606689 
	C263.501099,783.856323 285.259552,787.589783 305.847809,796.372986 
	C317.059845,801.156189 328.672485,799.893188 339.652435,794.179565 
	C343.191254,792.338074 346.885101,790.764221 350.595703,789.288452 
	C365.889557,783.205994 384.813324,787.635681 395.265259,800.108887 
	C397.827820,803.166992 399.438629,803.592163 402.902222,801.510986 
	C421.256531,790.482605 443.059875,794.494263 456.774414,811.080566 
	C457.780853,812.297668 458.366943,814.112366 460.873840,814.173706 
	C473.323792,794.629517 492.082886,785.215393 514.870850,784.889526 
	C537.889526,784.560181 556.932617,793.595337 569.376953,813.574829 
	C571.481934,813.095764 572.157593,811.868530 573.010742,810.893433 
	C587.974609,793.793213 609.031799,790.458313 628.754639,802.250366 
	C631.132141,803.671753 632.467529,803.491272 634.196167,801.431702 
	C637.426392,797.583069 641.207336,794.324402 645.717957,791.980408 
	C659.622375,784.754822 673.771667,784.617981 687.379822,792.039978 
	C702.285461,800.169556 716.902039,800.608826 732.407349,794.027832 
	C744.508423,788.891663 757.208801,785.537720 770.257874,783.369019 
	C782.044495,781.410095 793.846069,779.207153 805.026611,774.689514 
	C815.644409,770.399292 819.906433,764.127197 819.852112,752.905457 
	C819.836182,749.621033 820.585815,746.364685 819.897339,743.037720 
	C819.606750,741.633423 819.783447,739.638916 821.199036,738.959656 
	C825.070129,737.101807 828.999573,735.147034 833.126526,734.101318 
	C837.336853,733.034485 840.403687,736.459351 839.578247,740.499817 
	C838.769775,744.457397 841.320557,747.837341 845.519653,747.825623 
	C850.304626,747.812256 854.384888,745.773376 856.858948,741.646362 
	C863.686829,730.256409 855.688721,714.633301 842.528259,713.366699 
	C827.133118,711.885132 812.459045,725.090454 812.316162,740.588135 
	C812.268494,745.753906 812.438110,750.924133 812.285461,756.085754 
	C812.046021,764.183411 803.229065,771.289734 796.070190,769.284729 
	C795.713867,767.973083 796.669556,767.118164 797.185974,766.107727 
	C797.926941,764.657959 799.286072,763.142151 797.926880,761.545166 
	C796.627258,760.018188 794.617676,760.526672 793.291382,761.357483 
	C790.568604,763.062805 787.807678,762.155640 785.049255,762.077637 
	C778.643005,761.896729 772.456116,762.790161 766.507385,765.321716 
	C757.147400,769.304993 747.591187,772.783203 737.582092,774.718689 
	C723.197937,777.500000 709.084351,777.525757 696.117554,769.304260 
	C694.020569,767.974731 692.161499,768.374695 689.978638,769.097046 
	C661.480469,778.527832 632.788208,786.549316 602.393311,787.624695 
	C573.846252,788.634644 545.958313,785.637024 518.448792,778.290527 
	C516.967102,777.894775 515.019958,777.977295 514.858459,775.267578 
	C568.438782,776.042297 621.799011,775.540894 674.208557,757.768250 
	C669.135986,751.375671 663.435486,746.862671 659.190674,740.225220 
M745.177124,504.548187 
	C742.235474,516.104126 741.827454,527.860901 742.223755,539.707825 
	C742.509705,548.252808 745.064270,556.066284 749.407288,563.315735 
	C754.892761,572.472351 764.852478,576.388184 775.187683,573.772461 
	C782.643982,571.885376 788.929810,568.024353 794.666931,563.008484 
	C797.071106,560.906494 799.055603,558.062866 802.749023,557.221863 
	C802.871582,558.113159 803.188904,558.818420 803.010559,559.360657 
	C799.391846,570.363953 793.480286,579.599060 782.425476,584.393616 
	C777.864441,586.371704 773.045471,587.813293 768.257080,589.198669 
	C747.601807,595.174561 727.135132,601.624756 708.173218,612.040588 
	C676.571167,629.399780 654.660706,657.681885 660.490967,698.043030 
	C663.405029,718.215881 673.560059,734.026855 693.799988,741.151367 
	C710.165405,746.911926 726.763672,745.509277 742.744263,739.835632 
	C783.398376,725.402039 808.196838,695.273926 822.498779,655.905945 
	C831.121643,632.170288 830.222473,606.778381 832.606506,582.007690 
	C833.785095,569.761780 834.267944,557.449341 835.096558,545.169128 
	C836.283875,527.572998 837.519226,509.980103 838.697021,492.383331 
	C839.652527,478.107788 840.752136,463.837402 841.389038,449.546997 
	C841.679810,443.022400 843.043640,436.487366 842.476929,430.008392 
	C839.978577,429.526093 838.513428,430.465454 837.211304,431.405823 
	C823.003723,441.666504 814.938660,455.979980 811.544495,472.762054 
	C809.810852,481.333557 810.073975,490.295502 809.200195,499.057587 
	C807.956909,511.523956 805.788208,523.804993 799.976013,535.095764 
	C797.448242,540.006165 794.448547,544.630737 789.384033,547.416016 
	C782.855042,551.006836 776.736145,549.136353 773.574585,542.425659 
	C772.664246,540.493347 772.065430,538.370850 771.614197,536.273132 
	C769.644104,527.115112 770.971375,518.064209 772.659058,509.029266 
	C774.935425,496.842865 778.714539,485.155945 784.517944,474.192413 
	C787.594238,468.380768 791.766541,463.978027 799.041931,463.458405 
	C802.775330,463.191772 806.061890,461.111908 808.282593,458.016296 
	C814.730408,449.028107 816.014771,438.152985 819.980652,427.770966 
	C816.087463,426.914459 813.174866,427.290924 810.223877,427.784546 
	C797.639038,429.889587 786.999207,435.951538 777.751648,444.385895 
	C773.026184,448.695892 767.784607,451.575439 761.739929,453.138733 
	C741.649292,458.334595 728.613159,471.459167 720.296875,489.882507 
	C713.786316,504.305542 710.831177,519.596741 709.285095,535.246582 
	C708.887573,539.270752 709.033325,543.526184 706.851624,547.775269 
	C704.156799,545.298645 704.136963,542.614380 703.865051,540.299744 
	C702.934692,532.381165 702.383545,524.418396 701.653381,516.475708 
	C700.583069,504.833893 699.285706,493.152618 692.865662,483.032654 
	C690.563354,479.403656 690.209351,476.301422 691.149780,472.336914 
	C693.439148,462.686279 687.209717,453.991608 677.558899,453.779694 
	C670.356018,453.621582 665.005371,457.624664 661.086975,463.515594 
	C657.740234,468.547058 655.857361,474.287292 653.317749,479.710358 
	C652.524292,481.404877 652.252380,483.754669 649.541809,483.671265 
	C647.813232,480.617981 648.276794,480.628937 648.428711,474.205383 
	C648.860962,455.929230 650.994324,459.152527 635.525696,459.333374 
	C627.838989,459.423248 627.106567,460.208344 626.382385,467.863586 
	C625.082886,481.600372 623.532471,495.316833 622.459839,509.070923 
	C620.391785,535.588074 617.380066,562.006470 614.564575,588.446594 
	C613.921753,594.482849 616.280273,596.998962 622.474487,596.903503 
	C626.306335,596.844543 630.144958,596.573730 633.967468,596.726074 
	C638.494385,596.906555 640.270813,594.511292 640.623291,590.448486 
	C641.743408,577.534973 642.871155,564.629822 644.575439,551.767700 
	C647.271667,531.419006 653.297119,512.161133 662.665222,493.949829 
	C664.503113,490.377106 666.219116,485.459259 671.514526,486.713013 
	C676.635620,487.925507 676.730347,492.988617 677.347046,497.253540 
	C679.325195,510.934021 676.492371,524.433105 675.753296,538.009766 
	C675.149536,549.099670 673.307312,560.166626 676.340881,571.229126 
	C678.856079,580.401367 684.591248,586.721802 691.806580,587.622131 
	C700.551941,588.713501 708.003418,584.633362 712.883850,576.354614 
	C716.442627,570.317810 717.667419,563.665894 718.677063,556.891907 
	C721.296448,539.319031 722.914795,521.542236 728.639160,504.571899 
	C732.453979,493.262665 737.395325,482.546844 746.670837,474.510864 
	C749.873535,471.736206 753.266052,469.128601 759.051819,468.924927 
	C753.149719,480.609375 748.013062,491.723877 745.177124,504.548187 
M371.258789,429.758575 
	C369.949860,431.042084 368.649994,432.334991 367.330475,433.607513 
	C360.986969,439.725098 360.888397,440.396973 365.261230,449.245758 
	C366.393494,448.625488 367.613831,448.127014 368.641663,447.367859 
	C379.773346,439.146149 390.582520,430.558746 400.186005,420.518921 
	C404.901428,415.589264 409.932617,410.955994 414.921753,406.296631 
	C417.125946,404.238129 419.643372,402.764221 423.598083,404.655762 
	C414.898407,417.799713 407.342804,431.143921 395.284729,440.994049 
	C386.771576,447.948334 377.906311,454.476349 370.312286,462.492828 
	C369.056335,463.818604 367.400299,464.984619 367.177856,466.899109 
	C366.110779,476.084473 366.307098,485.296692 366.207855,495.477692 
	C369.903137,493.254456 372.720703,491.578217 375.519958,489.871887 
	C388.672668,481.854248 402.477814,476.110077 418.349091,477.608063 
	C420.551270,477.815887 422.112885,476.730011 423.718567,475.437622 
	C429.963531,470.411224 435.637085,464.772766 441.315491,459.141937 
	C444.133087,456.347931 447.026215,453.929443 451.385132,455.041168 
	C452.450165,455.312775 453.276489,455.201630 453.986298,454.224060 
	C455.732513,451.819153 454.823181,440.679077 452.606598,438.466309 
	C447.388153,433.256989 444.257202,427.028748 442.642365,419.814270 
	C438.302124,400.423889 450.025116,373.131836 476.024933,367.759949 
	C477.856171,367.381592 479.536713,366.822083 480.811707,365.328003 
	C483.620636,362.036346 486.385559,358.699524 489.341187,355.542877 
	C492.326019,352.355072 494.903534,348.686096 499.644928,345.850677 
	C498.919891,352.293823 495.290680,356.740265 493.964722,361.833099 
	C494.919128,363.450958 496.507141,363.538422 497.905365,363.964996 
	C509.387543,367.468170 518.808777,373.844086 526.408813,383.249939 
	C533.406494,391.910400 538.107178,401.813171 543.146790,411.571472 
	C549.403992,423.687500 554.376160,436.507874 562.750183,447.465485 
	C564.042847,449.156921 565.135742,451.187164 567.940125,450.330994 
	C578.320557,447.161957 588.960022,447.461609 599.633606,447.917786 
	C601.927368,448.015808 604.644043,448.299469 606.368958,445.644257 
	C605.658508,444.710327 605.103760,443.889709 604.459045,443.147339 
	C594.518005,431.701141 584.733459,420.119812 573.967346,409.409943 
	C570.576721,406.037079 567.070862,402.520660 566.787170,397.219696 
	C565.970520,381.959412 562.829041,367.246033 556.455688,353.292297 
	C556.106567,352.527954 555.792664,351.755005 556.880066,350.970947 
	C557.357727,351.232605 558.059998,351.413025 558.453674,351.863251 
	C565.685303,360.134949 573.248657,368.152740 579.975403,376.819214 
	C586.294678,384.960724 591.438721,393.980835 601.155396,398.916992 
	C604.264465,400.496368 606.389771,403.620941 607.834290,406.846588 
	C610.628052,413.085052 615.228455,417.787933 619.955017,422.549438 
	C628.380798,431.037506 638.200623,437.539642 648.321167,443.704987 
	C655.941101,448.347015 658.070374,448.085541 664.684265,441.303650 
	C664.365784,440.936462 664.107544,440.469269 663.712891,440.208344 
	C651.572510,432.181580 639.707275,423.878265 632.915710,410.335236 
	C632.771423,410.047577 632.498779,409.815613 632.259094,409.585724 
	C623.483887,401.169434 614.760742,392.697662 605.898987,384.373444 
	C602.588440,381.263672 599.621094,377.970367 597.422852,373.972809 
	C592.284058,364.627960 586.933105,355.415924 580.458923,346.898315 
	C579.560791,345.716644 577.874329,344.673035 578.752563,342.058380 
	C584.147278,345.313568 588.131226,349.784790 591.687683,354.430267 
	C601.596313,367.372986 613.879761,376.762817 629.496399,381.783936 
	C641.861084,385.759399 651.395264,393.497223 658.412964,404.421356 
	C664.577393,414.017212 673.402710,420.245300 684.466125,422.333832 
	C694.269592,424.184540 701.526672,429.179169 707.665222,436.637939 
	C713.215393,443.381897 720.291199,448.445251 727.294495,453.561615 
	C729.545837,455.206329 731.381226,454.684357 732.956177,452.796570 
	C734.698181,450.708496 732.804443,449.481720 731.554382,448.231628 
	C730.496704,447.174011 729.322937,446.229706 728.175720,445.264862 
	C722.186707,440.228210 716.175232,435.218201 710.205566,430.158875 
	C708.649475,428.840088 707.188110,427.298309 707.919678,425.024536 
	C708.624817,422.833008 710.703674,422.961609 712.499268,422.796661 
	C717.658875,422.322754 722.432800,423.450684 726.732727,426.386139 
	C732.234558,430.142090 737.952759,433.628784 743.157837,437.760498 
	C750.601746,443.669434 757.805847,442.836609 765.228760,438.099274 
	C770.688293,434.614990 774.606323,429.169403 781.125244,426.740875 
	C774.185059,414.854431 766.341675,405.244080 753.763733,400.597168 
	C750.953857,399.559082 747.950256,398.855438 745.903931,396.466949 
	C741.678955,391.535675 736.622192,391.298920 730.943298,393.422913 
	C728.302795,394.410461 725.521973,395.028076 722.795166,395.778503 
	C719.687500,396.633728 717.169617,398.071411 714.979797,400.705139 
	C709.262939,407.580566 691.358398,410.614166 683.605835,406.199615 
	C676.295288,402.036743 669.610901,396.888336 665.047791,389.779144 
	C657.270020,377.661652 645.871399,371.160278 632.515991,367.365784 
	C629.751953,366.580505 626.873901,365.760468 624.846619,363.871307 
	C616.397217,355.997528 606.102234,349.877563 601.182251,338.602600 
	C598.489563,332.431702 593.323120,328.902252 586.903015,327.032715 
	C583.197510,325.953674 579.686707,324.334534 577.117554,321.294708 
	C572.337097,315.638580 566.157654,312.145386 559.312805,309.724548 
	C554.654175,308.076874 550.712585,305.466064 547.284180,301.925964 
	C539.267029,293.647552 530.331787,286.415344 521.318481,279.267578 
	C519.336609,277.695953 517.923523,277.288574 515.716675,279.086456 
	C507.836700,285.506317 499.855072,291.796631 492.746033,299.095184 
	C490.026611,301.887085 486.975281,304.273102 483.194611,305.264008 
	C467.925873,309.265991 456.969116,318.958252 449.064789,332.032349 
	C440.895782,345.544250 429.964813,355.053650 415.176819,360.870239 
	C403.213531,365.575745 393.217041,373.258881 386.634674,384.870209 
	C384.532867,388.577850 381.158295,391.492645 377.912567,394.422516 
	C371.654572,400.071594 364.083649,403.678986 357.275452,408.449615 
	C353.389191,411.172760 349.072083,413.506256 346.849426,418.120483 
	C349.689758,421.345886 352.376953,424.397400 355.519501,427.966034 
	C363.322144,418.604980 373.124664,412.368469 381.285675,404.286438 
	C389.130402,396.517639 398.256958,390.338165 406.789490,383.423798 
	C408.022003,382.425018 409.587524,381.085510 411.230743,382.574982 
	C412.695312,383.902588 412.017914,385.664062 411.441864,387.244537 
	C410.568329,389.641205 409.098938,391.647156 407.235077,393.366272 
	C394.856628,404.783417 383.641815,417.351013 371.258789,429.758575 
M419.810303,635.533936 
	C424.829163,635.301453 429.711121,634.521240 434.285400,632.261475 
	C445.810211,626.568237 452.679291,610.993103 448.586212,599.732361 
	C446.441467,593.831787 443.998444,593.027039 439.175995,596.632690 
	C435.415680,599.444214 432.458160,598.299072 431.851532,593.597778 
	C431.534149,591.138123 431.532074,588.586365 431.777954,586.114990 
	C432.567169,578.183411 433.619354,570.278198 434.423553,562.347900 
	C436.536652,541.510925 438.610992,520.669800 440.576691,499.818573 
	C440.765076,497.820221 441.453094,495.488739 439.543457,493.651215 
	C436.886597,493.578003 434.771790,494.833038 432.660706,496.183197 
	C427.325439,499.595245 423.806854,504.668243 420.194092,509.664551 
	C409.400574,524.591797 406.840393,541.909912 405.236481,559.644287 
	C403.947083,573.901489 401.623901,588.039185 395.467255,601.187805 
	C392.844635,606.788818 389.890106,612.253296 384.349060,615.611877 
	C378.959259,618.878723 373.463318,617.582764 370.042206,612.314575 
	C368.490265,609.924744 367.265625,607.342773 366.813507,604.513306 
	C362.900604,580.025513 370.115784,558.133789 382.663757,537.554993 
	C384.851959,533.966309 388.298889,531.793457 392.634460,531.799438 
	C399.360931,531.808716 403.356659,528.152527 406.163635,522.499756 
	C409.445679,515.890198 410.851288,508.643188 413.402252,501.786438 
	C415.446045,496.292938 414.415253,495.051910 408.369080,495.329376 
	C407.374695,495.375031 406.376007,495.481476 405.395569,495.652863 
	C388.101166,498.676697 374.681427,508.001892 363.966278,521.497375 
	C351.810059,536.807861 344.593597,554.508789 340.531189,573.407410 
	C336.843292,590.563599 335.034149,607.856628 340.268494,625.222900 
	C346.899078,647.221680 367.469574,652.923462 384.370087,637.205505 
	C389.152740,632.757446 393.227478,627.714478 396.948730,622.361938 
	C397.848267,621.068115 398.339783,619.224121 400.973633,619.136719 
	C404.380829,627.152649 409.025604,634.330383 419.810303,635.533936 
M401.857483,697.066101 
	C435.664368,690.132202 469.941101,687.163147 504.331390,685.923767 
	C531.784485,684.934509 559.282898,685.042297 586.761841,684.986450 
	C604.239807,684.950928 621.719177,685.495972 639.197449,685.807678 
	C642.113586,685.859619 644.348511,685.528015 644.703125,681.749451 
	C645.579834,672.406921 648.265747,663.502502 651.905273,654.869385 
	C652.582581,653.262878 653.812317,651.677612 652.822021,649.763672 
	C651.055115,648.751099 649.182983,649.142334 647.381714,649.107178 
	C626.579712,648.700806 605.775513,648.397583 584.975281,647.918701 
	C542.022156,646.929810 499.102783,646.729614 456.373718,652.306396 
	C435.727356,655.001099 415.262207,658.531311 395.459839,665.190247 
	C379.461700,670.570007 365.706329,679.180847 355.433350,692.883423 
	C353.488068,695.478088 353.221375,697.342407 356.045959,699.517761 
	C359.335541,702.051208 362.376923,704.921326 365.407715,707.771118 
	C367.233948,709.488220 368.865723,709.645020 371.214447,708.594666 
	C380.937195,704.246704 390.824463,700.290955 401.857483,697.066101 
M491.893433,580.225708 
	C490.478790,578.157288 490.640137,575.797485 490.656067,573.469299 
	C490.770172,556.803284 493.609070,540.385986 495.261658,523.862793 
	C496.881073,507.671326 498.903412,491.520477 500.689575,475.345276 
	C502.275970,460.979340 503.948303,446.619690 505.262573,432.228058 
	C506.120941,422.829041 507.483429,413.463745 505.661224,403.922394 
	C501.795105,383.679016 482.987152,375.375061 467.693573,387.434662 
	C454.670715,397.703766 455.375397,417.801514 469.132446,426.781281 
	C472.055817,428.689484 473.317810,431.111237 473.421204,434.644958 
	C473.636627,442.006317 472.633514,449.263336 471.925415,456.533875 
	C470.203033,474.218536 468.291565,491.886017 466.300781,509.542938 
	C464.570068,524.893066 462.490906,540.204468 460.819550,555.560608 
	C459.472809,567.934021 456.818115,580.239136 457.429535,592.740234 
	C458.436005,613.318298 468.351624,625.026855 489.411163,620.708740 
	C505.835541,617.341064 514.145264,594.375793 506.339050,580.895630 
	C504.702393,578.069336 502.971832,576.420166 499.871185,579.653564 
	C497.923004,581.685181 495.348145,583.348083 491.893433,580.225708 
M601.851807,575.741028 
	C602.462402,569.959717 603.124390,564.183350 603.673157,558.396179 
	C604.944275,544.990601 606.201843,531.583435 607.388611,518.170166 
	C608.853088,501.618103 610.268250,485.061462 611.617920,468.499756 
	C611.757385,466.788483 612.315247,464.551147 610.129578,463.652191 
	C608.384521,462.934418 606.897705,464.237122 605.668152,465.306427 
	C593.960999,475.487762 586.557434,488.425934 583.419922,503.402008 
	C580.424988,517.697693 581.120117,532.540649 578.285217,546.915527 
	C576.150330,557.740723 573.591003,568.468384 565.987915,577.038757 
	C561.643677,581.935730 555.131348,583.061523 550.753967,579.922119 
	C547.141479,577.331238 545.742737,573.389587 544.655334,569.322632 
	C542.007507,559.419434 542.983215,549.458191 544.803650,539.632935 
	C547.055969,527.477173 550.613770,515.681335 557.452087,505.175232 
	C559.460632,502.089447 561.773438,498.900238 565.874756,498.767181 
	C575.410950,498.457764 580.200684,492.861816 582.704163,484.427917 
	C584.408264,478.686981 585.962585,472.891449 587.941345,467.245605 
	C589.351135,463.222900 588.095459,462.018127 584.161438,462.433350 
	C567.349060,464.207733 553.035217,470.958984 542.315735,484.211853 
	C521.485413,509.965149 514.128845,539.992065 515.610229,572.463684 
	C516.116333,583.558167 519.148376,594.203308 526.709839,602.893860 
	C532.184753,609.186218 539.044312,611.477661 547.338013,609.622437 
	C557.211182,607.413879 564.128479,601.205627 570.121765,593.562622 
	C571.257080,592.114746 571.839966,589.739380 574.508423,590.275757 
	C578.051453,604.224976 577.117249,602.585022 591.856934,602.593689 
	C597.782959,602.597107 599.960205,600.523926 600.549927,594.578491 
	C601.140320,588.626221 601.388367,582.639893 601.851807,575.741028 
M298.075714,352.011688 
	C299.347473,352.651245 300.619232,353.290771 301.939606,353.954773 
	C302.003754,353.527039 302.197327,353.129517 302.073090,352.936096 
	C297.328705,345.549133 290.185333,340.888794 282.747009,336.840454 
	C280.445709,335.587982 277.201080,336.393433 277.080658,340.528168 
	C276.968658,344.375275 274.622375,345.766663 271.070129,345.146637 
	C268.936157,344.774139 266.918060,344.118835 264.738708,345.068695 
	C259.973328,347.145599 254.822083,347.773804 249.790649,348.844604 
	C248.177017,349.188019 246.375641,349.940460 245.371124,347.967468 
	C244.358124,345.977814 245.586975,344.417419 246.972733,343.157501 
	C248.898254,341.406830 250.955109,339.800629 253.074432,338.033630 
	C250.461777,335.838867 248.220932,334.422089 245.123001,336.157745 
	C229.890457,344.691986 218.853638,356.898651 212.547241,373.244751 
	C212.116104,374.362305 211.205063,375.670227 212.446808,376.995331 
	C212.921921,377.019196 213.409576,377.084869 213.893005,377.061829 
	C222.320648,376.660095 228.647369,371.350037 235.685776,367.706970 
	C237.214874,366.915497 238.852036,366.076660 240.303558,367.434875 
	C242.119537,369.134064 240.305115,370.442993 239.378860,371.676178 
	C232.969482,380.209381 225.224808,387.001740 215.173294,391.109497 
	C198.327271,397.993835 189.280670,411.806854 183.052094,428.030579 
	C181.687073,431.586060 182.726944,432.948517 186.493362,432.854340 
	C192.984741,432.692047 199.503311,432.398254 205.968842,432.811279 
	C211.022766,433.134094 213.911026,431.425049 216.093185,426.831909 
	C219.515778,419.627838 223.496628,412.721863 229.306503,406.987885 
	C247.191452,389.336426 268.251251,381.319824 293.351074,385.759521 
	C307.386810,388.242157 319.488922,395.369385 331.506042,402.571838 
	C332.873199,403.391235 334.179108,405.234192 335.917145,404.124146 
	C341.982574,400.250275 348.471008,396.973633 354.635742,392.002136 
	C344.915894,386.087891 336.815521,378.899567 325.509644,378.065399 
	C317.269806,377.457397 310.184570,373.833496 303.756500,368.865051 
	C299.111664,365.274963 294.137573,362.220764 288.697388,360.102997 
	C285.020538,358.671661 284.154480,356.684998 285.803436,353.218628 
	C286.491241,351.772766 286.822021,350.157074 287.416260,348.303192 
	C290.815491,349.753632 293.949066,351.256653 298.075714,352.011688 
M526.500305,892.624817 
	C530.507202,892.307312 531.779419,888.773499 533.635681,886.192322 
	C538.833313,878.964661 545.948242,875.226318 554.501770,873.740601 
	C566.494019,871.657654 578.317993,872.783142 590.148010,875.208801 
	C605.097839,878.274109 618.933838,884.562866 633.163940,889.704346 
	C637.435913,891.247864 640.823730,891.043152 643.697449,886.654419 
	C639.683777,883.507935 634.980835,882.203308 630.724487,880.104126 
	C603.108337,866.484131 574.546631,859.842773 543.738647,867.526733 
	C532.779724,870.260132 522.308044,863.509521 518.867188,852.622375 
	C518.168945,850.413147 517.608948,848.352783 514.786743,848.481628 
	C512.160034,848.601501 511.884338,850.787842 511.300629,852.699524 
	C508.069214,863.282898 497.299072,869.752136 486.425781,867.890686 
	C478.569031,866.545776 470.815491,864.593323 462.778229,864.282471 
	C441.404449,863.455750 421.718018,869.826660 402.473846,878.150208 
	C397.238617,880.414612 392.077118,882.849487 386.303070,885.468689 
	C391.459900,889.692444 395.535950,891.435425 401.561432,888.959900 
	C418.627625,881.948303 435.795990,875.007019 454.462311,873.238220 
	C473.036713,871.478027 490.750824,871.978882 502.054596,890.406128 
	C502.851440,891.705139 503.843231,893.399536 505.971802,892.209595 
	C506.398254,890.172119 505.005127,888.687622 504.564392,886.956299 
	C503.109161,881.239563 505.046478,877.047180 510.431122,874.951233 
	C515.118347,873.126831 519.637329,873.327026 523.574341,876.705994 
	C527.644958,880.199646 526.421753,884.408508 524.930115,888.658142 
	C524.457703,890.004272 522.110229,892.096375 526.500305,892.624817 
M480.837433,829.377686 
	C489.766998,814.085571 503.905518,809.315918 520.432617,810.866638 
	C535.192749,812.251648 546.716003,819.910400 554.997864,832.185913 
	C556.471436,834.370056 558.120850,834.837769 560.430176,834.672180 
	C565.570618,834.303589 570.786377,833.327759 575.848206,833.833130 
	C590.529236,835.298767 605.143066,837.426880 619.798462,839.167236 
	C623.108582,839.560303 626.357727,841.187927 629.869141,840.223572 
	C629.729431,836.600952 628.061157,835.226501 624.749634,835.304199 
	C622.103149,835.366272 619.442261,835.037170 616.794861,834.801147 
	C600.929077,833.386536 585.222656,830.089111 569.221191,830.421570 
	C564.558105,830.518433 562.099548,829.065063 560.189453,824.678345 
	C552.011963,805.897888 531.596680,796.443604 512.893494,797.630432 
	C493.012329,798.892029 477.570557,807.628784 469.441833,826.812012 
	C468.532562,828.957825 467.262665,830.409973 464.612579,830.309143 
	C450.597351,829.775818 436.788757,832.125977 422.906036,833.429016 
	C416.788177,834.003235 410.687103,834.755188 404.570129,835.340149 
	C402.492889,835.538757 400.622406,836.388672 400.832031,838.486755 
	C401.106720,841.236023 403.376617,840.288391 405.153290,839.961853 
	C406.947845,839.632019 408.764404,839.422852 410.570099,839.152832 
	C430.415253,836.185669 450.193665,831.735596 470.416199,834.922668 
	C475.442993,835.714905 478.367798,834.182190 480.837433,829.377686 
M700.927856,351.410492 
	C716.613159,338.705292 721.843079,338.542328 737.015259,350.900879 
	C740.933716,354.092682 744.878296,355.610168 750.065002,355.887360 
	C756.062683,356.207855 759.364929,353.582520 762.200989,349.105499 
	C762.807739,348.147675 763.841858,347.463806 764.664062,346.638794 
	C770.290710,340.993347 777.384888,337.775055 784.566895,334.951416 
	C784.394958,333.636444 783.513123,333.413513 782.849670,332.973572 
	C769.050598,323.823090 754.924622,324.640472 740.702393,331.775696 
	C735.498047,334.386658 730.120605,335.403229 724.326294,335.322205 
	C712.177063,335.152252 700.023682,335.303192 687.872131,335.268311 
	C683.335693,335.255280 679.705017,337.089783 676.195374,340.276031 
	C679.975220,345.934814 683.611816,351.292877 687.150330,356.714935 
	C688.779236,359.211090 690.473877,359.598846 692.832581,357.617004 
	C695.250854,355.585144 697.844788,353.762299 700.927856,351.410492 
M229.043198,447.823120 
	C230.871689,447.853210 232.771683,447.572296 234.514908,447.973175 
	C239.252350,449.062531 241.576889,447.401459 243.281006,442.733765 
	C246.241394,434.624969 251.666763,427.920563 258.463440,422.678009 
	C272.195496,412.085846 287.619202,410.999420 303.773682,415.752289 
	C307.800842,416.937134 311.682800,416.964600 315.839600,416.124298 
	C314.924225,413.484863 313.115601,412.286469 311.425140,410.944366 
	C288.161285,392.474579 257.990540,397.395050 238.786942,417.313690 
	C232.092545,424.257294 227.800888,432.745514 225.566299,442.131775 
	C225.058838,444.263367 223.326233,447.814240 229.043198,447.823120 
M466.515076,917.794861 
	C504.637482,927.002808 542.273254,925.738953 580.415710,912.872559 
	C576.717285,911.191711 573.676147,910.260986 571.987793,907.684814 
	C570.077942,904.770813 567.653564,904.383423 564.696594,905.348022 
	C562.176453,906.170105 559.413452,906.669128 557.240356,908.063049 
	C546.156128,915.173096 534.125977,918.525391 520.967041,918.806824 
	C505.688721,919.133484 490.663635,918.973938 477.385345,909.801758 
	C474.499054,907.808044 471.180115,906.575989 467.789795,905.703552 
	C465.720215,905.170959 462.988556,904.294861 461.574005,905.914734 
	C458.518005,909.414307 454.586792,911.222351 449.205536,913.196167 
	C455.550659,914.914368 460.622467,916.287720 466.515076,917.794861 
M373.941803,339.120697 
	C371.983459,341.787445 370.248810,344.516876 366.425018,345.068024 
	C355.653473,346.620544 349.474396,354.588135 342.464478,362.139740 
	C347.506989,365.986908 353.213470,366.836639 358.808655,369.594147 
	C363.245239,360.979401 371.578583,356.758636 378.741608,351.172607 
	C381.660187,348.896606 383.695312,350.433685 385.766724,352.169495 
	C388.114868,354.137177 386.297241,355.768707 385.010040,357.203278 
	C381.790222,360.791565 378.426483,364.250305 375.178864,367.814178 
	C373.785461,369.343292 371.646576,370.441467 371.847076,373.983978 
	C379.347046,373.039490 381.255280,365.650513 386.138519,362.192322 
	C391.363647,358.491974 396.119629,354.129150 401.284149,349.888184 
	C396.307129,345.994873 391.195984,343.233429 386.067200,340.503571 
	C382.452332,338.579498 378.706177,337.410553 373.941803,339.120697 
M278.267517,437.747559 
	C271.889709,440.621643 266.496155,444.920135 262.542969,450.552124 
	C257.312347,458.004120 251.703247,465.632599 257.546234,475.557465 
	C259.075134,478.154449 261.265961,478.887695 263.716736,479.019257 
	C266.199463,479.152527 266.241455,476.676849 266.629211,475.030640 
	C269.436157,463.114105 276.337494,454.940765 287.842987,450.381439 
	C293.363068,448.193970 297.679108,444.129089 300.303558,438.639709 
	C301.058838,437.059967 302.134888,435.221405 300.793945,433.454010 
	C299.449738,431.682434 297.432434,432.262238 295.682068,432.564331 
	C289.929535,433.557129 284.280426,434.958527 278.267517,437.747559 
M412.361267,850.106140 
	C396.935120,851.609741 383.186462,859.050415 367.237183,862.135986 
	C371.540222,863.564392 374.848450,863.631470 378.191559,863.713013 
	C390.659821,864.016968 402.570190,860.702332 414.499420,857.907288 
	C436.640991,852.719299 458.934570,849.959412 481.689240,851.584534 
	C484.015381,851.750610 486.523376,852.090698 489.181122,850.114441 
	C480.693085,847.071594 472.579010,845.633667 464.288483,845.386353 
	C447.094177,844.873413 430.151855,847.446655 412.361267,850.106140 
M656.091553,860.524109 
	C648.651978,858.136230 641.276306,855.520935 633.759277,853.408691 
	C618.979614,849.255737 603.682373,848.209595 588.523987,846.393066 
	C577.763916,845.103760 566.965332,844.764160 556.208740,846.382080 
	C551.122864,847.147034 545.933777,847.747498 540.785583,850.101868 
	C543.070190,852.191040 545.165771,851.720764 547.052063,851.466614 
	C559.880676,849.738342 572.638062,851.397644 585.372009,852.402283 
	C602.491699,853.752930 618.945312,858.849121 635.714478,862.186523 
	C644.224548,863.880188 652.718079,864.722107 662.372986,861.956116 
	C659.708313,861.402954 658.258728,861.102051 656.091553,860.524109 
M624.110229,634.294189 
	C630.093262,634.382019 636.079224,634.624634 642.058533,634.513000 
	C647.706787,634.407593 653.388123,634.244385 658.981812,633.532654 
	C665.322327,632.725769 668.083374,625.903809 664.568604,620.590942 
	C664.059021,619.820740 663.351868,619.530273 662.474365,619.505737 
	C659.329712,619.417969 656.185730,619.290161 653.040527,619.238892 
	C647.885071,619.154663 642.682739,621.411560 637.675720,620.060059 
	C628.583191,617.605896 621.899902,620.937927 616.101807,627.457886 
	C614.923645,628.782715 612.892090,629.811523 613.540771,631.939392 
	C614.227051,634.190796 616.474426,633.679749 618.225098,633.852539 
	C619.879028,634.015686 621.543457,634.072083 624.110229,634.294189 
M648.659912,341.707428 
	C646.603271,336.636597 643.144287,335.687042 635.038025,338.001892 
	C635.045532,339.967987 636.795593,340.660461 637.888062,341.785095 
	C652.180969,356.498291 670.177429,366.842590 684.638184,381.369507 
	C686.053467,382.791229 687.954163,383.713287 689.980042,383.883545 
	C693.131775,384.148499 695.631348,385.413055 697.196045,388.133575 
	C699.059875,387.476379 700.642578,386.999420 701.525269,384.695068 
	C699.949707,383.717468 698.412781,382.439087 696.647644,381.724365 
	C688.596130,378.464325 682.862732,372.650635 678.214844,365.542938 
	C676.213196,362.481873 674.154419,359.455994 672.047974,356.466034 
	C667.765564,350.387573 662.359070,346.068054 654.671997,345.066711 
	C652.621582,344.799683 650.295288,344.559814 648.659912,341.707428 
M323.507477,335.319977 
	C318.629120,335.536804 313.693146,334.862305 308.369385,335.825623 
	C309.039551,337.081604 309.256805,337.948792 309.807465,338.448730 
	C314.591614,342.792145 319.532135,346.874908 322.479736,352.955688 
	C323.859955,355.803070 329.410065,355.645172 332.263123,353.189423 
	C335.155792,350.699646 338.055786,348.199493 340.743866,345.496368 
	C343.239166,342.987061 346.893097,341.560944 348.568024,337.282898 
	C340.589294,333.511719 332.371613,336.074554 323.507477,335.319977 
M581.940979,820.690796 
	C584.788330,822.673645 588.013123,823.602112 591.101196,821.914856 
	C600.266907,816.906677 609.829407,816.952515 619.636047,819.071350 
	C621.817078,819.542542 624.023560,820.174561 625.228455,817.553833 
	C626.461792,814.870972 624.324768,813.654724 622.639404,812.340942 
	C610.268982,802.698608 591.963257,806.194824 581.940979,820.690796 
M444.368774,821.528503 
	C448.318939,820.598022 446.425415,818.613098 445.110718,816.927124 
	C436.884033,806.376709 417.714142,803.899536 406.960846,811.933289 
	C405.086548,813.333557 403.711182,814.862671 404.860748,817.390625 
	C405.935883,819.755005 407.840485,819.649231 409.936920,819.139099 
	C419.763885,816.747559 429.410431,817.176147 438.784821,821.158936 
	C440.402740,821.846252 442.001373,821.896484 444.368774,821.528503 
M726.588318,359.913483 
	C719.508972,353.996185 714.175598,354.771851 709.235840,362.446747 
	C711.757324,364.579132 714.198730,366.815704 716.814697,368.824921 
	C725.695679,375.645905 726.721436,375.157532 735.980225,367.666718 
	C732.998840,365.215485 730.059753,362.799011 726.588318,359.913483 
M225.614136,684.828491 
	C224.468872,680.899170 225.219437,676.613037 223.138504,671.713440 
	C220.737167,680.765320 218.576553,688.842651 216.467834,696.933533 
	C216.165878,698.092102 216.283813,699.356323 217.322479,700.127319 
	C221.170258,702.983398 223.839264,706.963501 227.916702,711.731445 
	C227.077988,702.083557 226.367188,693.906982 225.614136,684.828491 
M481.035522,893.930847 
	C482.683929,894.303955 483.682007,893.802673 482.162872,892.365112 
	C479.841919,890.168823 476.885193,888.910950 473.737030,888.286133 
	C461.850861,885.926575 450.268219,887.510193 438.859955,891.102112 
	C437.886475,891.408630 436.760223,891.707581 436.487213,893.288818 
	C451.313721,891.304321 465.867340,891.463989 481.035522,893.930847 
M565.025879,892.411987 
	C574.459961,890.832947 583.936340,892.949402 593.414124,892.149353 
	C582.336121,887.589111 570.940002,886.015869 559.139038,888.067627 
	C555.159973,888.759399 551.095947,889.450134 548.843628,894.300659 
	C551.829468,893.723389 554.223083,893.103821 556.655518,892.834106 
	C559.119690,892.560730 561.622192,892.633240 565.025879,892.411987 
M798.453125,749.879578 
	C803.319519,750.043762 804.119141,748.720886 802.770325,742.606323 
	C800.164124,742.335510 798.653259,744.243286 796.945984,745.655701 
	C794.692383,747.519958 795.979004,748.644226 798.453125,749.879578 
M521.546692,836.852356 
	C521.368774,839.291748 522.318481,841.013123 524.797546,841.546143 
	C526.283508,841.865662 527.328796,841.142212 527.730225,839.653259 
	C528.213379,837.861084 527.556702,836.395691 526.126282,835.375061 
	C524.460144,834.186279 522.812134,833.914185 521.546692,836.852356 
M418.850250,337.227173 
	C415.968719,333.420410 412.853851,336.379333 409.836121,336.476776 
	C412.552582,338.959106 415.295715,340.849915 418.850250,337.227173 
M230.056183,744.983765 
	C228.982269,745.349548 227.254486,745.658875 227.952057,747.075806 
	C228.820496,748.839722 230.602524,749.825684 232.922211,749.328491 
	C232.782959,747.327637 233.373962,745.267944 230.056183,744.983765 
z"/>
<path fill="#000000" opacity="1.000000" stroke="none" 
	d="
M379.804260,178.853180 
	C381.887360,176.606522 384.257233,176.779556 386.597443,176.780762 
	C398.429352,176.786865 410.265564,176.592651 422.090942,176.868637 
	C426.539124,176.972458 428.584686,175.412140 429.881531,171.185791 
	C435.545135,152.728088 445.534851,137.123016 460.914459,125.115257 
	C477.008057,112.550064 495.140167,106.639755 515.574219,106.533966 
	C542.434937,106.394913 564.537415,116.315681 582.055176,136.441254 
	C590.567627,146.220886 596.817322,157.453766 600.258789,169.984818 
	C601.702698,175.242340 604.108643,177.208145 609.665894,177.001907 
	C621.648804,176.557205 633.658020,176.814468 645.656433,176.801285 
	C647.153259,176.799637 648.683777,176.720306 650.139709,176.992325 
	C652.662231,177.463623 654.507507,178.866013 654.391418,181.691025 
	C654.279602,184.412430 652.568970,185.908539 649.952820,186.246384 
	C648.474731,186.437286 646.958496,186.355743 645.459412,186.356445 
	C633.294189,186.362244 621.128235,186.426773 608.964111,186.312286 
	C605.694031,186.281509 604.073853,187.091843 604.145508,190.786880 
	C604.213379,194.284256 605.131714,195.891357 608.960205,195.919769 
	C636.275513,196.122482 663.585327,197.362595 690.907898,196.247543 
	C692.386292,196.187225 693.903137,196.433792 695.363953,196.727264 
	C697.544983,197.165421 698.925781,198.577240 699.148987,200.799393 
	C699.357971,202.880432 698.022400,204.193558 696.383484,205.191284 
	C694.273315,206.475876 691.907349,206.299118 689.575867,206.298706 
	C664.412170,206.294220 639.248474,206.292847 614.084778,206.290665 
	C611.948730,206.290482 609.812744,206.290619 607.676697,206.290619 
	C607.587891,206.729294 607.499084,207.167953 607.410217,207.606628 
	C619.406128,209.774673 628.790405,218.621216 642.292175,217.971588 
	C665.402283,216.859573 688.605225,217.677139 711.769226,217.687469 
	C713.102051,217.688065 714.443909,217.622452 715.765869,217.749893 
	C718.803528,218.042694 720.980286,219.779236 721.009033,222.767410 
	C721.039490,225.939423 718.930603,227.923065 715.645630,228.240921 
	C714.157837,228.384888 712.648865,228.329773 711.149475,228.330597 
	C690.985168,228.341705 670.820923,228.334915 650.656677,228.373734 
	C648.872803,228.377167 647.012085,227.942657 645.232910,228.905289 
	C644.961548,230.875214 646.654480,231.328262 647.753418,232.156525 
	C657.980469,239.864304 670.064148,240.370590 682.072815,240.572556 
	C698.732910,240.852737 715.401001,240.655487 732.065674,240.664719 
	C733.398804,240.665451 734.732239,240.666367 736.064941,240.694702 
	C739.209412,240.761551 741.115967,242.291580 741.323547,245.492020 
	C741.549011,248.969086 739.522888,251.092941 736.332520,251.144135 
	C723.012939,251.357834 709.670593,251.959152 696.378967,250.818939 
	C693.306396,250.555359 690.445740,251.171631 687.495728,251.201096 
	C674.666443,251.329224 661.834900,251.262650 649.004395,251.227264 
	C645.808228,251.218445 643.385132,249.404587 640.978638,247.565170 
	C627.780823,237.477432 613.707275,238.810501 602.992004,251.281036 
	C601.360535,253.179733 599.553955,254.205673 597.166321,254.725662 
	C592.862549,255.662918 588.536377,255.418945 584.226135,255.192276 
	C581.633057,255.055908 579.805725,253.558929 579.816711,250.721756 
	C579.827332,247.997681 581.794006,246.859695 584.102600,246.785828 
	C587.422852,246.679565 589.864441,245.015671 591.868896,242.774780 
	C598.733643,235.100250 607.253662,230.771149 617.417969,229.501984 
	C618.199524,229.404373 618.933289,228.923492 619.822693,228.567337 
	C619.534912,227.955292 619.452942,227.333496 619.121155,227.139938 
	C605.648560,219.280243 591.727539,214.970566 576.451172,221.962570 
	C574.633789,222.794388 572.889282,223.800293 571.035339,224.534622 
	C563.524109,227.509827 560.557068,226.254166 556.504517,219.375061 
	C548.693420,206.116119 536.927429,199.006104 521.667297,197.232498 
	C508.810272,195.738174 496.799500,197.974121 485.690125,204.574539 
	C479.832489,208.054718 475.544678,213.146225 472.200012,219.041763 
	C467.952911,226.527908 463.466827,227.940918 455.571381,223.906693 
	C450.784943,221.461060 445.968903,219.395554 440.529053,218.917679 
	C429.245392,217.926498 419.351013,221.354050 410.188263,227.688919 
	C411.022614,229.297577 412.350281,229.348022 413.377991,229.425476 
	C424.044586,230.229370 432.713135,235.095200 440.241699,242.372849 
	C442.675201,244.725250 445.277924,246.635880 448.909027,246.822647 
	C451.118347,246.936279 452.740509,248.328033 452.679321,250.696732 
	C452.615631,253.165436 450.974823,255.039703 448.646759,255.066879 
	C440.610474,255.160812 432.421417,257.427368 426.237823,248.571075 
	C419.206909,238.501328 398.423248,238.363876 390.003479,246.905731 
	C386.522980,250.436661 382.641785,251.383102 377.884613,251.432144 
	C360.732574,251.608948 343.584717,250.988464 326.419678,251.935516 
	C315.980591,252.511490 305.456909,251.590607 294.972656,251.291641 
	C291.446533,251.191101 288.518951,249.853226 288.490845,245.890060 
	C288.459564,241.479980 291.604462,240.637222 295.375000,240.646881 
	C314.205963,240.695129 333.038635,240.789154 351.867737,240.589447 
	C362.326752,240.478531 372.454742,238.740601 380.951050,231.856613 
	C381.689636,231.258194 382.786682,230.912445 382.723206,229.524338 
	C380.853790,227.654037 378.394440,228.386353 376.187561,228.380676 
	C356.690033,228.330582 337.192322,228.376022 317.694641,228.385956 
	C316.195282,228.386719 314.694763,228.359528 313.196777,228.297668 
	C310.212952,228.174484 308.513458,226.408524 308.238770,223.637009 
	C307.933014,220.552155 309.708649,218.558441 312.670593,217.919388 
	C314.272308,217.573837 315.984863,217.687698 317.647461,217.686508 
	C342.977875,217.668396 368.308380,217.625702 393.638550,217.702530 
	C397.388824,217.713913 400.857758,217.187286 404.241730,215.487320 
	C410.567261,212.309616 417.090729,209.563858 424.535614,207.894547 
	C422.351746,205.610931 420.426422,206.291138 418.709198,206.289825 
	C392.545868,206.269897 366.382507,206.308365 340.219147,206.305511 
	C338.072235,206.305267 335.906311,206.513062 333.811127,205.636078 
	C331.604797,204.712555 330.048706,203.396576 330.385681,200.794571 
	C330.735779,198.091110 332.292358,196.727402 335.104584,196.665771 
	C340.931915,196.538086 346.777679,195.880188 352.578888,196.172806 
	C375.240082,197.315903 397.877350,195.237274 420.529694,195.895706 
	C422.926331,195.965378 425.679535,196.393387 426.494568,192.886597 
	C427.528748,188.436951 426.170593,186.540588 420.959900,186.464172 
	C408.963562,186.288239 396.963135,186.405548 384.965454,186.292297 
	C379.443634,186.240173 378.250305,184.550629 379.804260,178.853180 
M484.979858,126.464867 
	C474.046631,131.906219 464.131073,138.604568 456.075684,149.737167 
	C461.064667,149.737167 464.984314,149.619751 468.892975,149.776062 
	C471.774323,149.891281 474.896301,150.288971 475.164062,154.048187 
	C475.434082,157.839142 472.765137,159.430862 469.500458,159.664017 
	C464.862976,159.995193 460.194550,159.872757 455.541046,160.005096 
	C448.515167,160.204895 446.119995,162.788391 446.109406,170.702271 
	C457.391022,170.702271 468.679199,170.672348 479.967072,170.719833 
	C483.522491,170.734787 486.072205,168.209000 489.249969,167.315750 
	C490.360809,167.003525 491.504486,166.736023 492.649994,166.630356 
	C505.778137,165.419296 518.928284,165.801849 532.061401,166.392410 
	C535.660278,166.554245 539.561096,165.715164 542.857178,167.675751 
	C547.848999,170.645081 553.205933,170.839905 558.755615,170.710739 
	C565.746521,170.548065 572.744202,170.690872 579.738342,170.634399 
	C581.160461,170.622910 582.778503,171.118561 583.883118,169.680756 
	C582.957642,161.534317 580.535217,159.544556 572.921021,159.908157 
	C567.281555,160.177444 561.626770,160.305176 555.973694,159.521988 
	C552.871460,159.092194 550.868103,157.870880 550.815979,154.640793 
	C550.762573,151.332428 553.354675,150.623978 555.908203,150.283859 
	C558.206238,149.977768 560.546448,149.976273 562.869446,149.871506 
	C566.257568,149.718704 569.719055,150.266800 573.218811,149.181290 
	C558.019043,125.645912 520.798950,110.853241 484.979858,126.464867 
M560.380188,180.302139 
	C552.540527,179.922379 544.359192,182.072830 537.163086,176.862000 
	C536.121948,176.108109 534.258789,176.369583 532.775391,176.365372 
	C521.115906,176.332275 509.456207,176.340210 497.796600,176.359222 
	C495.976593,176.362198 493.956818,175.954788 492.427246,177.075577 
	C487.144653,180.946426 481.117218,180.451141 475.138855,180.294006 
	C465.349609,180.036682 455.582397,179.491394 445.805664,181.011642 
	C440.460815,181.842743 440.903015,186.063995 440.620422,189.326416 
	C440.305878,192.957199 443.965210,192.487015 446.215698,192.541306 
	C454.539246,192.742111 462.872345,192.530640 471.197266,192.699387 
	C475.447968,192.785568 479.312378,191.913971 483.239319,190.248550 
	C501.731018,182.406235 520.594971,181.333374 539.734741,187.825119 
	C543.976013,189.263672 548.087158,191.625961 552.425293,192.132538 
	C563.181396,193.388565 574.043701,192.604935 584.862915,192.510605 
	C587.402405,192.488464 588.675659,191.159622 588.774353,188.410080 
	C588.967834,183.020645 587.233215,181.147659 581.692688,180.284988 
	C574.880127,179.224274 568.126587,179.281204 560.380188,180.302139 
M572.757629,202.297272 
	C569.829834,202.443817 566.840149,201.896759 562.262939,203.565735 
	C564.613770,205.375870 566.299622,206.648911 567.957031,207.958008 
	C569.308716,209.025574 570.280334,211.064163 572.537231,209.740448 
	C576.632812,207.338379 581.319092,206.900513 585.785828,205.739334 
	C587.085693,205.401443 588.506653,205.316620 588.119873,202.728622 
	C583.460449,201.710617 578.534851,202.531647 572.757629,202.297272 
M448.678314,202.341309 
	C446.114868,202.722549 443.184753,201.373917 440.277802,204.271484 
	C444.893738,206.285645 449.472473,205.995682 453.527679,207.689575 
	C458.522003,209.775757 460.214539,208.692490 462.942505,202.811615 
	C458.471313,201.793472 454.017059,202.570724 448.678314,202.341309 
z"/>
<path fill="#000000" opacity="1.000000" stroke="none" 
	d="
M776.788208,859.974121 
	C770.644714,863.890747 766.621521,864.205505 764.428162,861.156494 
	C762.240845,858.115906 763.925781,854.586121 768.901550,849.800720 
	C779.476318,839.630554 790.934937,830.551086 802.566223,821.660217 
	C810.198120,815.826416 818.506592,811.437195 827.988220,809.477234 
	C828.802490,809.308960 829.600464,809.003723 830.420776,808.932617 
	C834.416748,808.586670 839.184082,807.693848 840.415955,812.826843 
	C841.488831,817.297363 837.778931,819.783875 834.008118,821.081482 
	C823.030273,824.859253 813.680603,830.767273 806.659973,840.225647 
	C803.950012,843.876648 800.057190,845.728271 795.324829,845.354797 
	C792.244080,845.111572 789.929199,846.495300 787.926941,848.749084 
	C784.506165,852.599548 781.273376,856.647705 776.788208,859.974121 
z"/>
<path fill="#000000" opacity="1.000000" stroke="none" 
	d="
M201.218903,822.837891 
	C198.409439,821.692505 195.729446,821.222534 193.564850,819.542175 
	C191.403625,817.864502 190.394089,815.690552 190.914825,812.979492 
	C191.455612,810.164001 193.796310,809.557373 196.125839,809.077209 
	C199.012634,808.482239 201.755066,809.417603 204.464859,810.144287 
	C210.124786,811.662170 215.506836,814.002258 220.422943,817.127441 
	C236.466812,827.326660 251.705170,838.589722 265.165222,852.113525 
	C267.543243,854.502808 269.569336,857.059875 267.140289,860.380127 
	C264.862732,863.493225 261.555359,863.939331 258.196838,862.363647 
	C252.591721,859.733826 248.932526,854.808655 245.177139,850.213074 
	C242.561340,847.012085 239.976898,844.914978 235.642899,845.060852 
	C230.312546,845.240234 226.647858,841.917297 223.434219,838.207581 
	C217.420944,831.266113 210.330643,825.948669 201.218903,822.837891 
z"/>
<path fill="#000000" opacity="1.000000" stroke="none" 
	d="
M715.033325,290.407410 
	C712.042114,290.373199 709.544067,290.373260 707.048584,290.294098 
	C704.565796,290.215302 702.859192,289.148804 702.813232,286.429321 
	C702.765503,283.601776 704.555176,282.707062 707.041199,282.695740 
	C712.868042,282.669159 718.695190,282.689148 724.521667,282.634277 
	C739.499329,282.493317 754.486145,283.075226 769.453247,282.049500 
	C771.780151,281.890045 774.117432,281.885162 776.388428,282.587158 
	C778.110107,283.119354 779.389587,284.101898 779.498901,286.033417 
	C779.613342,288.056427 778.757263,289.543671 776.835876,290.388000 
	C774.773499,291.294312 772.616577,291.169647 770.449585,291.139618 
	C752.142395,290.886139 733.834961,290.648987 715.033325,290.407410 
z"/>
<path fill="#000000" opacity="1.000000" stroke="none" 
	d="
M868.984497,574.549805 
	C869.007629,567.461121 869.010010,560.829529 869.131042,554.200073 
	C869.176331,551.717651 869.384705,549.205139 871.042053,547.130371 
	C872.514893,545.286560 874.523621,545.323792 876.500427,545.826782 
	C879.168274,546.505615 880.115845,548.631836 880.139038,551.120605 
	C880.210266,558.745850 880.238525,566.372986 880.143738,573.997681 
	C880.097961,577.682434 880.078308,581.725098 875.058594,582.257263 
	C869.683533,582.826965 869.642944,578.588623 868.984497,574.549805 
z"/>
<path fill="#000000" opacity="1.000000" stroke="none" 
	d="
M878.393311,649.857178 
	C879.765747,651.899170 880.167847,653.812073 880.152466,655.864197 
	C880.096252,663.360779 880.119141,670.858154 880.030579,678.354248 
	C879.987488,681.995667 878.183105,684.653137 874.488647,684.878296 
	C870.362915,685.129700 869.052673,681.799622 868.980347,678.518188 
	C868.804260,670.531555 868.740295,662.515503 869.241882,654.549805 
	C869.610107,648.701721 872.570618,647.326477 878.393311,649.857178 
z"/>
<path fill="#000000" opacity="1.000000" stroke="none" 
	d="
M161.349182,539.256592 
	C161.347076,546.357849 161.317581,552.987732 161.346603,559.617371 
	C161.362518,563.251282 159.963074,565.938843 156.112106,566.159302 
	C152.194656,566.383545 150.375137,563.691650 150.280930,560.166687 
	C150.086349,552.885681 150.086014,545.592957 150.265381,538.311401 
	C150.353409,534.737915 151.648041,531.561096 156.065521,531.820496 
	C160.313156,532.069824 161.470795,535.029663 161.349182,539.256592 
z"/>
<path fill="#000000" opacity="1.000000" stroke="none" 
	d="
M869.755859,628.807556 
	C868.304382,620.003296 868.709656,611.588440 869.568115,603.172241 
	C869.871643,600.196411 871.563293,598.759216 874.496338,598.678467 
	C877.449402,598.597168 879.561279,600.164490 879.776855,602.897217 
	C880.440552,611.312439 880.992249,619.820435 879.346619,628.143860 
	C878.406494,632.898926 873.901917,633.218506 869.755859,628.807556 
z"/>
<path fill="#000000" opacity="1.000000" stroke="none" 
	d="
M155.928864,517.656616 
	C152.122131,517.499390 150.223618,515.408691 150.100937,512.270203 
	C149.815475,504.967529 149.571106,497.646759 150.512939,490.352112 
	C150.963379,486.863342 152.986267,485.443237 156.311951,485.564270 
	C159.742371,485.689178 161.017578,488.194244 161.107834,490.938293 
	C161.337708,497.927429 161.320679,504.936707 161.050766,511.924347 
	C160.944000,514.688293 159.415466,517.001709 155.928864,517.656616 
z"/>
<path fill="#000000" opacity="1.000000" stroke="none" 
	d="
M869.666504,507.018219 
	C869.704956,503.359833 869.506348,500.169037 869.851746,497.038239 
	C870.161865,494.227295 871.567993,491.845917 874.886597,491.845490 
	C878.380188,491.845032 880.080078,494.080353 880.133362,497.283691 
	C880.252502,504.443726 880.228821,511.611938 880.009399,518.769043 
	C879.913269,521.903748 878.324707,524.304016 874.740417,524.152344 
	C871.283386,524.005920 869.774841,521.773682 869.708252,518.507690 
	C869.633545,514.843689 869.675293,511.177277 869.666504,507.018219 
z"/>
<path fill="#000000" opacity="1.000000" stroke="none" 
	d="
M158.929932,584.058716 
	C160.548233,585.709961 161.266891,587.371521 161.261917,589.263977 
	C161.246689,595.070251 161.373184,600.887939 161.040573,606.677979 
	C160.858047,609.855652 159.959244,613.145630 155.730545,613.252380 
	C151.549164,613.357910 150.277451,610.288574 150.084869,607.018311 
	C149.744125,601.231628 149.588623,595.396484 149.940338,589.617310 
	C150.287506,583.912781 153.283661,582.155273 158.929932,584.058716 
z"/>
<path fill="#000000" opacity="1.000000" stroke="none" 
	d="
M812.121521,371.912720 
	C808.837891,369.621765 805.804993,367.595886 802.891479,365.410889 
	C801.554810,364.408447 800.356079,363.047089 801.091309,361.165619 
	C801.780945,359.400909 803.494812,359.711731 804.956970,359.662903 
	C812.533691,359.409729 825.608582,368.009186 828.528320,375.061127 
	C829.255249,376.816772 829.406677,378.594299 829.308228,380.417572 
	C829.231812,381.834106 829.638306,383.599304 827.643127,384.107574 
	C825.960205,384.536346 824.775574,383.591827 823.849854,382.319672 
	C820.773315,378.092072 816.871887,374.796997 812.121521,371.912720 
z"/>
<path fill="#000000" opacity="1.000000" stroke="none" 
	d="
M623.492249,169.844635 
	C619.964539,167.979935 617.970398,165.731140 620.734192,162.246063 
	C622.269287,160.310318 624.508423,159.480331 626.961914,160.652847 
	C629.124390,161.686264 630.302490,163.538010 629.714233,165.901657 
	C628.990967,168.807449 627.029724,170.378418 623.492249,169.844635 
z"/>
<path fill="#000000" opacity="1.000000" stroke="none" 
	d="
M615.430176,738.650879 
	C600.673889,740.231628 586.410583,738.794250 572.148743,738.008972 
	C559.042908,737.287292 545.959045,736.174927 532.856445,735.383728 
	C529.493286,735.180603 526.294128,734.457153 523.080688,733.595703 
	C520.308472,732.852539 518.737122,731.223999 518.900330,728.252014 
	C519.065308,725.248169 520.952515,723.809143 523.698059,723.408569 
	C525.828186,723.097839 528.007751,722.769714 530.140747,722.888916 
	C555.385437,724.300293 580.646545,724.899536 605.929382,724.691345 
	C614.656616,724.619446 623.213135,723.976624 630.831665,719.016663 
	C633.760620,717.109863 636.580994,717.613586 638.968628,720.059998 
	C641.430115,722.582092 641.229797,725.408936 639.570374,728.290955 
	C635.293091,735.719788 627.737610,736.803467 620.353333,738.175171 
	C618.888611,738.447205 617.373474,738.447632 615.430176,738.650879 
z"/>
<path fill="#000000" opacity="1.000000" stroke="none" 
	d="
M713.482910,645.432129 
	C731.156128,631.890930 751.592529,625.257812 772.075867,618.769531 
	C778.250305,616.813782 784.548767,615.251160 790.783386,613.483582 
	C793.168701,612.807312 795.534363,612.061035 798.233948,613.036011 
	C799.152710,619.285278 797.282227,625.224365 796.217346,631.187622 
	C790.343506,664.080383 771.605896,687.751953 742.893921,703.754333 
	C733.840210,708.800476 723.809265,711.506592 713.120728,709.628357 
	C700.701050,707.445923 693.042847,698.494019 692.664856,685.785706 
	C692.154358,668.625061 700.383179,655.973022 713.482910,645.432129 
z"/>
<path fill="#000000" opacity="1.000000" stroke="none" 
	d="
M471.705933,658.495483 
	C476.398956,655.765991 480.952271,654.583374 485.801208,656.788147 
	C487.807434,657.700439 489.889313,658.996399 488.814697,661.660156 
	C487.902161,663.922058 485.844543,664.642700 483.428009,664.119141 
	C482.138275,663.839722 480.848297,663.384033 479.550720,663.355164 
	C476.886658,663.295898 475.301514,665.088440 474.186676,667.199280 
	C473.001556,669.443359 474.626709,670.994446 476.004089,672.402466 
	C477.619965,674.054382 479.532013,674.915771 481.819000,673.564514 
	C482.247620,673.311218 482.705414,673.107666 483.136414,672.858093 
	C485.285217,671.614319 487.482849,671.471191 488.754089,673.814697 
	C490.094147,676.285095 488.845886,678.232422 486.557281,679.613953 
	C480.615479,683.200928 471.323425,681.541870 467.624878,676.200195 
	C463.789368,670.660645 465.270294,663.773499 471.705933,658.495483 
z"/>
<path fill="#000000" opacity="1.000000" stroke="none" 
	d="
M566.096313,667.264648 
	C564.472412,669.771240 564.499329,672.286499 564.147827,674.750061 
	C563.798645,677.197327 562.663818,679.203735 559.697388,679.185425 
	C556.736084,679.167114 555.986633,676.846252 556.014832,674.761169 
	C556.085327,669.542908 553.675049,665.606445 550.539062,661.800354 
	C548.886841,659.794983 546.747498,657.369385 549.921082,654.990662 
	C553.103333,652.605591 555.065918,655.000916 556.906311,657.298279 
	C557.824402,658.444336 558.500732,659.857117 560.201050,660.362488 
	C562.682434,659.860657 563.530212,657.402100 565.131226,655.831360 
	C567.038757,653.959778 569.021851,653.169800 571.290100,654.941711 
	C573.692810,656.818787 572.390686,658.763855 571.078491,660.571838 
	C569.518127,662.721680 567.889648,664.822144 566.096313,667.264648 
z"/>
<path fill="#000000" opacity="1.000000" stroke="none" 
	d="
M531.650024,676.944946 
	C527.467346,680.562805 524.653259,679.760193 523.898743,674.975159 
	C523.540405,672.702820 523.702759,670.340942 523.710571,668.020020 
	C523.721741,664.683899 524.316528,661.118530 519.223633,660.892029 
	C517.763062,660.827026 516.997131,659.530151 517.113220,657.991577 
	C517.242004,656.284546 518.249756,655.078003 519.872986,654.927368 
	C525.467163,654.408203 531.078491,653.844543 536.701233,654.422852 
	C538.672546,654.625549 540.225098,655.575745 540.147644,657.897705 
	C540.072998,660.134583 538.669067,661.314636 536.603210,661.221130 
	C532.886536,661.052917 532.223938,663.017761 532.290588,666.186890 
	C532.363403,669.646973 532.787659,673.155701 531.650024,676.944946 
z"/>
<path fill="#000000" opacity="1.000000" stroke="none" 
	d="
M499.733093,662.385498 
	C500.102905,660.495178 500.307404,658.996948 500.857635,657.638794 
	C501.640350,655.706665 503.353729,654.976257 505.314087,655.276489 
	C507.198517,655.565125 508.184692,657.022583 508.206512,658.813293 
	C508.275024,664.437866 508.314148,670.068970 508.104370,675.687866 
	C508.016022,678.053833 506.422821,679.768738 503.987579,679.937683 
	C501.225861,680.129272 500.149506,677.839172 499.972382,675.736084 
	C499.612305,671.460754 499.774994,667.141418 499.733093,662.385498 
z"/>
<path fill="#000000" opacity="1.000000" stroke="none" 
	d="
M544.614990,159.177811 
	C541.052246,159.602783 538.331970,158.963730 537.970947,155.284485 
	C537.689758,152.419418 539.385254,150.543365 542.232605,150.063782 
	C544.338684,149.709076 546.365173,150.278763 547.248596,152.396042 
	C548.391479,155.134933 548.009766,157.612106 544.614990,159.177811 
z"/>
</svg>